<?xml version="1.0" standalone="no"?><!DOCTYPE svg PUBLIC "-//W3C//DTD SVG 1.1//EN" "http://www.w3.org/Graphics/SVG/1.1/DTD/svg11.dtd"><svg t="1667524291471" class="icon" viewBox="0 0 1024 1024" version="1.1" xmlns="http://www.w3.org/2000/svg" p-id="5174" xmlns:xlink="http://www.w3.org/1999/xlink" width="200" height="200"><path d="M550.886168 517.484062a73.076784 73.076784 0 0 0-31.71506-7.268034 71.358885 71.358885 0 0 0-33.036521 8.060911c-34.622274-62.637244-72.283908-125.538779-114.174216-188.968899l-15.989676 9.77881q50.744096 99.373855 109.813395 195.311911a72.680346 72.680346 0 1 0 126.463802 48.629759 76.380436 76.380436 0 0 0-1.453607-14.536069 697.467028 697.467028 0 0 0 120.252936-138.753388L676.292801 396.43825a726.803459 726.803459 0 0 0-125.406633 121.045812zM406.979083 117.08143A208.130081 208.130081 0 0 0 156.430109 39.643825L108.593227 0 71.195885 22.993419l21.275519 57.219254a209.84798 209.84798 0 0 0-31.318621 270.370886 12.025294 12.025294 0 0 0 1.453607 2.114338L408.829128 118.931475z m539.81675-23.125565l27.222094-59.862175L942.17072 3.832236 884.555028 45.193961a207.733643 207.733643 0 0 0-252.002581 48.761904l-1.717899 1.982192 314.243386 274.863853 1.717899-1.982191a209.980126 209.980126 0 0 0 0-274.863854z m-27.222093 440.046458a415.467286 415.467286 0 0 0-459.339786-366.837528c-224.648342 25.63634-383.223642 232.180668-366.441089 458.282618l1.057169 2.114337a415.202994 415.202994 0 0 0 88.273584 212.358756l-24.050588 183.683056h58.805007l69.112402-92.502259c76.24829 48.23332 168.750548 75.851852 265.217189 58.805007l2.114338 2.37863a409.652858 409.652858 0 0 0 184.079494-65.015873l74.001807 96.730933H871.34042l-26.429217-200.862047a414.806556 414.806556 0 0 0 74.662537-289.13563zM765.623553 784.287005c-52.858433 66.073042-130.163892 119.856498-220.419667 119.856497-90.520067 17.178991-176.547167-14.403923-242.488063-67.13021a323.625758 323.625758 0 0 1-122.499419-218.701768 330.365208 330.365208 0 0 1 290.721383-366.044651A329.043748 329.043748 0 0 1 765.623553 784.287005z" fill="#515151" p-id="5175"></path></svg>