<?xml version="1.0" standalone="no"?><!DOCTYPE svg PUBLIC "-//W3C//DTD SVG 1.1//EN" "http://www.w3.org/Graphics/SVG/1.1/DTD/svg11.dtd"><svg t="1667524222075" class="icon" viewBox="0 0 1024 1024" version="1.1" xmlns="http://www.w3.org/2000/svg" p-id="2982" xmlns:xlink="http://www.w3.org/1999/xlink" width="200" height="200"><path d="M640 592v352a37.373333 37.373333 0 0 1-37.333333 37.333333H464a37.373333 37.373333 0 0 1-37.333333-37.333333V592a37.373333 37.373333 0 0 1 37.333333-37.333333h138.666667a37.373333 37.373333 0 0 1 37.333333 37.333333z m261.333333-208h-138.666666a37.373333 37.373333 0 0 0-37.333334 37.333333v522.666667a37.373333 37.373333 0 0 0 37.333334 37.333333h138.666666a37.373333 37.373333 0 0 0 37.333334-37.333333V421.333333a37.373333 37.373333 0 0 0-37.333334-37.333333z m-597.333333 298.666667H165.333333a37.373333 37.373333 0 0 0-37.333333 37.333333v224a37.373333 37.373333 0 0 0 37.333333 37.333333h138.666667a37.373333 37.373333 0 0 0 37.333333-37.333333v-224a37.373333 37.373333 0 0 0-37.333333-37.333333z m633.04-626.86a21.333333 21.333333 0 0 0-4.533333-6.8l-0.046667-0.046667A21.213333 21.213333 0 0 0 917.333333 42.666667h-128a21.333333 21.333333 0 0 0 0 42.666666h76.5L618.666667 332.5 505.753333 219.58a21.333333 21.333333 0 0 0-30.173333 0l-341.333333 341.333333a21.333333 21.333333 0 0 0 30.173333 30.173334L490.666667 264.833333l112.913333 112.92a21.333333 21.333333 0 0 0 30.173333 0L896 115.5V192a21.333333 21.333333 0 0 0 42.666667 0V64a21.333333 21.333333 0 0 0-1.626667-8.193333z" fill="#515151" p-id="2983"></path></svg>